<svg width="16" height="16" viewBox="0 0 16 16" fill="none" xmlns="http://www.w3.org/2000/svg">
	<path d="M14 4.99997H2C1.73487 4.99968 1.48069 4.89423 1.29321 4.70675C1.10574 4.51928 1.00029 4.2651 1 3.99997V1.99997C1.00028 1.73484 1.10572 1.48065 1.2932 1.29317C1.48068 1.10569 1.73487 1.00025 2 0.999969H14C14.2651 1.00025 14.5193 1.10569 14.7068 1.29317C14.8943 1.48065 14.9997 1.73484 15 1.99997V3.99997C14.9997 4.2651 14.8943 4.51928 14.7068 4.70675C14.5193 4.89423 14.2651 4.99968 14 4.99997ZM2 1.99997V3.99997H14V1.99997H2Z" fill="currentColor"/>
	<path d="M14 15H2C1.73487 14.9997 1.48069 14.8942 1.29321 14.7068C1.10574 14.5193 1.00029 14.2651 1 14V12C1.00028 11.7348 1.10572 11.4806 1.2932 11.2932C1.48068 11.1057 1.73487 11.0002 2 11H14C14.2651 11.0002 14.5193 11.1057 14.7068 11.2932C14.8943 11.4806 14.9997 11.7348 15 12V14C14.9997 14.2651 14.8943 14.5193 14.7068 14.7068C14.5193 14.8942 14.2651 14.9997 14 15ZM2 12V14H14V12H2Z" fill="currentColor"/>
	<path d="M14 9.99997H2C1.73487 9.99968 1.48069 9.89423 1.29321 9.70675C1.10574 9.51928 1.00029 9.2651 1 8.99997V6.99997C1.00028 6.73484 1.10572 6.48065 1.2932 6.29317C1.48068 6.10569 1.73487 6.00025 2 5.99997H14C14.2651 6.00025 14.5193 6.10569 14.7068 6.29317C14.8943 6.48065 14.9997 6.73484 15 6.99997V8.99997C14.9997 9.2651 14.8943 9.51928 14.7068 9.70675C14.5193 9.89423 14.2651 9.99968 14 9.99997ZM2 6.99997V8.99997H14V6.99997H2Z" fill="currentColor"/>
</svg>
