<svg width="16" height="16" viewBox="0 0 16 16" fill="currentColor" xmlns="http://www.w3.org/2000/svg">
    <path fill-rule="evenodd" clip-rule="evenodd" d="M11.1729 14H4.82719L1.65378 8.5L4.82719 3H11.1729L14.3463 8.5L11.1729 14ZM4.24966 15L0.499268 8.5L4.24966 2H11.7504L15.5008 8.5L11.7504 15H4.24966ZM6.5 4.75H5.75V5.5V12.5H7.25V10.25H7.25385H7.2578H7.26175H7.2657H7.26966H7.27362H7.27758H7.28155H7.28552H7.28949H7.29347H7.29745H7.30143H7.30542H7.30941H7.3134H7.3174H7.32139H7.3254H7.3294H7.33341H7.33742H7.34144H7.34546H7.34948H7.3535H7.35753H7.36156H7.36559H7.36963H7.37367H7.37771H7.38176H7.38581H7.38986H7.39391H7.39797H7.40203H7.40609H7.41016H7.41423H7.4183H7.42237H7.42645H7.43053H7.43461H7.4387H7.44278H7.44688H7.45097H7.45507H7.45916H7.46327H7.46737H7.47148H7.47559H7.4797H7.48382H7.48793H7.49205H7.49618H7.5003H7.50443H7.50856H7.51269H7.51683H7.52096H7.5251H7.52925H7.53339H7.53754H7.54169H7.54584H7.55H7.55415H7.55831H7.56248H7.56664H7.57081H7.57497H7.57915H7.58332H7.58749H7.59167H7.59585H7.60003H7.60422H7.6084H7.61259H7.61678H7.62098H7.62517H7.62937H7.63357H7.63777H7.64197H7.64618H7.65039H7.65459H7.65881H7.66302H7.66723H7.67145H7.67567H7.67989H7.68412H7.68834H7.69257H7.6968H7.70103H7.70526H7.70949H7.71373H7.71797H7.72221H7.72645H7.73069H7.73494H7.73918H7.74343H7.74768H7.75193H7.75619H7.76044H7.7647H7.76896H7.77322H7.77748H7.78174H7.78601H7.79027H7.79454H7.79881H7.80308H7.80735H7.81163H7.8159H7.82018H7.82446H7.82874H7.83302H7.8373H7.84159H7.84587H7.85016H7.85445H7.85873H7.86302H7.86732H7.87161H7.8759H7.8802H7.8845H7.88879H7.89309H7.89739H7.9017H7.906H7.9103H7.91461H7.91891H7.92322H7.92753H7.93184H7.93615H7.94046H7.94477H7.94909H7.9534H7.95772H7.96203H7.96635H7.97067H7.97499H7.97931H7.98363H7.98795H7.99228H7.9966H8.00092H8.00525H8.00958H8.0139H8.01823H8.02256H8.02689H8.03122H8.03555H8.03988H8.04421H8.04855H8.05288H8.05722H8.06155H8.06589H8.07022H8.07456H8.0789H8.08324H8.08757H8.09191H8.09625H8.10059H8.10493H8.10927H8.11362H8.11796H8.1223H8.12664H8.13099H8.13533H8.13967H8.14402H8.14836H8.15271H8.15705H8.1614H8.16575H8.17009H8.17444H8.17879H8.18313H8.18748H8.19183H8.19618H8.20052H8.20487H8.20922H8.21357H8.21792H8.22227H8.22661H8.23096H8.23531H8.23966H8.24401H8.24836H8.25271H8.25706H8.26141H8.26576H8.2701H8.27445H8.2788H8.28315H8.2875H8.29185H8.2962H8.30054H8.30489H8.30924H8.31359H8.31793H8.32228H8.32663H8.33098H8.33532H8.33967H8.34401H8.34836H8.3527H8.35705H8.36139H8.36574H8.37008H8.37442H8.37877H8.38311H8.38745H8.39179H8.39614H8.40048H8.40482H8.40916H8.41349H8.41783H8.42217H8.42651H8.43085H8.43518H8.43952H8.44385H8.44819H8.45252H8.45685H8.46119H8.46552H8.46985H8.47418H8.47851H8.48284H8.48716H8.49149H8.49582H8.50014C10.019 10.25 11.25 9.01871 11.25 7.5C11.25 5.98122 10.0188 4.75 8.5 4.75H6.5ZM7.25385 8.75H7.25V6.25H8.5C9.19036 6.25 9.75 6.80964 9.75 7.5C9.75 8.19043 9.19043 8.75 8.50014 8.75H8.49582H8.49149H8.48716H8.48284H8.47851H8.47418H8.46985H8.46552H8.46119H8.45685H8.45252H8.44819H8.44385H8.43952H8.43518H8.43085H8.42651H8.42217H8.41783H8.41349H8.40916H8.40482H8.40048H8.39614H8.39179H8.38745H8.38311H8.37877H8.37442H8.37008H8.36574H8.36139H8.35705H8.3527H8.34836H8.34401H8.33967H8.33532H8.33098H8.32663H8.32228H8.31793H8.31359H8.30924H8.30489H8.30054H8.2962H8.29185H8.2875H8.28315H8.2788H8.27445H8.2701H8.26576H8.26141H8.25706H8.25271H8.24836H8.24401H8.23966H8.23531H8.23096H8.22661H8.22227H8.21792H8.21357H8.20922H8.20487H8.20052H8.19618H8.19183H8.18748H8.18313H8.17879H8.17444H8.17009H8.16575H8.1614H8.15705H8.15271H8.14836H8.14402H8.13967H8.13533H8.13099H8.12664H8.1223H8.11796H8.11362H8.10927H8.10493H8.10059H8.09625H8.09191H8.08757H8.08324H8.0789H8.07456H8.07022H8.06589H8.06155H8.05722H8.05288H8.04855H8.04421H8.03988H8.03555H8.03122H8.02689H8.02256H8.01823H8.0139H8.00958H8.00525H8.00092H7.9966H7.99228H7.98795H7.98363H7.97931H7.97499H7.97067H7.96635H7.96203H7.95772H7.9534H7.94909H7.94477H7.94046H7.93615H7.93184H7.92753H7.92322H7.91891H7.91461H7.9103H7.906H7.9017H7.89739H7.89309H7.88879H7.8845H7.8802H7.8759H7.87161H7.86732H7.86302H7.85873H7.85445H7.85016H7.84587H7.84159H7.8373H7.83302H7.82874H7.82446H7.82018H7.8159H7.81163H7.80735H7.80308H7.79881H7.79454H7.79027H7.78601H7.78174H7.77748H7.77322H7.76896H7.7647H7.76044H7.75619H7.75193H7.74768H7.74343H7.73918H7.73494H7.73069H7.72645H7.72221H7.71797H7.71373H7.70949H7.70526H7.70103H7.6968H7.69257H7.68834H7.68412H7.67989H7.67567H7.67145H7.66723H7.66302H7.65881H7.65459H7.65039H7.64618H7.64197H7.63777H7.63357H7.62937H7.62517H7.62098H7.61678H7.61259H7.6084H7.60422H7.60003H7.59585H7.59167H7.58749H7.58332H7.57915H7.57497H7.57081H7.56664H7.56248H7.55831H7.55415H7.55H7.54584H7.54169H7.53754H7.53339H7.52925H7.5251H7.52096H7.51683H7.51269H7.50856H7.50443H7.5003H7.49618H7.49205H7.48793H7.48382H7.4797H7.47559H7.47148H7.46737H7.46327H7.45916H7.45507H7.45097H7.44688H7.44278H7.4387H7.43461H7.43053H7.42645H7.42237H7.4183H7.41423H7.41016H7.40609H7.40203H7.39797H7.39391H7.38986H7.38581H7.38176H7.37771H7.37367H7.36963H7.36559H7.36156H7.35753H7.3535H7.34948H7.34546H7.34144H7.33742H7.33341H7.3294H7.3254H7.32139H7.3174H7.3134H7.30941H7.30542H7.30143H7.29745H7.29347H7.28949H7.28552H7.28155H7.27758H7.27362H7.26966H7.2657H7.26175H7.2578H7.25385Z"/>
</svg>
