<svg width="16" height="16" viewBox="0 0 16 16" fill="currentColor" xmlns="http://www.w3.org/2000/svg">
    <path fill-rule="evenodd" clip-rule="evenodd" d="M3 2.00499H13C13.2652 2.00499 13.5196 2.11035 13.7071 2.29788C13.8946 2.48542 14 2.73977 14 3.00499V13.005C14 13.2702 13.8946 13.5246 13.7071 13.7121C13.5196 13.8996 13.2652 14.005 13 14.005H3C2.73478 14.005 2.48043 13.8996 2.29289 13.7121C2.10536 13.5246 2 13.2702 2 13.005V3.00499C2 2.73977 2.10536 2.48542 2.29289 2.29788C2.48043 2.11035 2.73478 2.00499 3 2.00499ZM5.38 8.08999L6.79 9.50499L5.38 10.92L6.085 11.625L8.205 9.50499L6.085 7.38499L5.38 8.08999ZM13 3H3V5H13V3Z"/>
</svg>
