<svg width="16" height="16" viewBox="0 0 16 16" fill="currentColor" xmlns="http://www.w3.org/2000/svg">
    <path d="M8 6.00247C8.39556 6.00247 8.78224 6.11977 9.11114 6.33953C9.44004 6.5593 9.69638 6.87165 9.84776 7.2371C9.99913 7.60256 10.0387 8.00469 9.96157 8.39265C9.8844 8.78061 9.69392 9.13698 9.41421 9.41669C9.13451 9.69639 8.77814 9.88687 8.39018 9.96404C8.00222 10.0412 7.60009 10.0016 7.23463 9.85023C6.86918 9.69886 6.55682 9.44251 6.33706 9.11361C6.1173 8.78471 6 8.39803 6 8.00247C6.0006 7.47222 6.2115 6.96386 6.58644 6.58892C6.96139 6.21397 7.46975 6.00307 8 6.00247ZM8 5.00247C7.40666 5.00247 6.82664 5.17842 6.33329 5.50806C5.83994 5.83771 5.45542 6.30624 5.22836 6.85442C5.0013 7.4026 4.94189 8.0058 5.05764 8.58774C5.1734 9.16969 5.45912 9.70424 5.87868 10.1238C6.29824 10.5434 6.83279 10.8291 7.41473 10.9448C7.99667 11.0606 8.59987 11.0012 9.14805 10.7741C9.69623 10.547 10.1648 10.1625 10.4944 9.66918C10.8241 9.17584 11 8.59582 11 8.00247C11 7.20682 10.6839 6.44376 10.1213 5.88115C9.55871 5.31854 8.79565 5.00247 8 5.00247Z"/>
    <path d="M3.40382 2.69924L2.69679 3.40628L4.4497 5.1592L5.15674 4.45216L3.40382 2.69924Z"/>
    <path d="M3.5 7.50247H1V8.50247H3.5V7.50247Z"/>
    <path d="M4.4497 10.8457L2.69678 12.5987L3.40382 13.3057L5.15674 11.5528L4.4497 10.8457Z"/>
    <path d="M8.5 12.5025H7.5V15.0025H8.5V12.5025Z"/>
    <path d="M11.5503 10.8457L10.8433 11.5528L12.5962 13.3057L13.3032 12.5987L11.5503 10.8457Z"/>
    <path d="M15 7.50247H12.5V8.50247H15V7.50247Z"/>
    <path d="M12.5962 2.69925L10.8433 4.45217L11.5503 5.1592L13.3032 3.40629L12.5962 2.69925Z"/>
    <path d="M8.5 1.00247H7.5V3.50247H8.5V1.00247Z"/>
</svg>