<svg width="16" height="16" viewBox="0 0 16 16" fill="currentColor" xmlns="http://www.w3.org/2000/svg">
    <path d="M13.591 0.997289C13.6021 1.18655 13.5586 1.37497 13.4659 1.53855C13.3732 1.70212 13.2355 1.83346 13.0703 1.91582C12.9052 1.99817 12.7201 2.02783 12.5386 2.001C12.3571 1.97418 12.1875 1.89208 12.0513 1.76518C11.9151 1.63828 11.8184 1.47231 11.7737 1.28842C11.729 1.10453 11.7383 0.911043 11.8003 0.732601C11.8623 0.554159 11.9742 0.398841 12.1219 0.286434C12.2695 0.174026 12.4462 0.109617 12.6293 0.10141C12.7494 0.0945545 12.8696 0.112326 12.9831 0.153701C13.0965 0.195076 13.2009 0.259238 13.2903 0.342498C13.3796 0.425757 13.4522 0.526471 13.5038 0.638845C13.5554 0.751218 13.585 0.873035 13.591 0.997289ZM8.20492 12.0303C5.7535 12.0303 3.59887 11.1205 2.48489 9.77654C2.91715 10.9854 3.6971 12.0284 4.71977 12.7649C5.74245 13.5015 6.95874 13.8964 8.20495 13.8964C9.45116 13.8964 10.6675 13.5015 11.6901 12.7649C12.7128 12.0284 13.4928 10.9854 13.925 9.77654C12.8137 11.1204 10.6673 12.0303 8.20492 12.0303ZM8.20492 3.29194C10.6564 3.29194 12.811 4.20178 13.925 5.54569C13.4928 4.33678 12.7128 3.29385 11.6901 2.55728C10.6675 1.82071 9.45116 1.42585 8.20495 1.42585C6.95874 1.42585 5.74245 1.82071 4.71977 2.55728C3.6971 3.29385 2.91715 4.33678 2.48489 5.54569C3.59892 4.19907 5.74262 3.29194 8.20492 3.29194ZM4.83021 14.6454C4.84533 14.9408 4.75369 15.2314 4.57311 15.4608C4.39254 15.6902 4.13593 15.8419 3.8532 15.8864C3.57047 15.9309 3.28184 15.8651 3.04343 15.7017C2.80503 15.5383 2.6339 15.2891 2.56333 15.0025C2.49275 14.7158 2.52779 14.4123 2.66161 14.1509C2.79543 13.8895 3.01848 13.6889 3.28737 13.5881C3.55625 13.4874 3.85176 13.4937 4.11641 13.6058C4.38106 13.7179 4.59593 13.9278 4.71924 14.1947C4.78424 14.336 4.82193 14.4891 4.83021 14.6454ZM2.76338 2.98571C2.63131 2.98945 2.50111 2.95272 2.38917 2.88013C2.27722 2.80755 2.18852 2.70236 2.13422 2.57778C2.07991 2.4532 2.06244 2.3148 2.08398 2.17997C2.10552 2.04515 2.16512 1.91992 2.25529 1.82003C2.34546 1.72015 2.46216 1.65006 2.59074 1.61859C2.71931 1.58712 2.85401 1.59567 2.9779 1.64316C3.10179 1.69065 3.20934 1.77496 3.28703 1.8855C3.36471 1.99603 3.40907 2.12786 3.41452 2.26439C3.41968 2.44908 3.3542 2.62841 3.23229 2.76346C3.11038 2.89851 2.94188 2.97837 2.76338 2.98571Z"/>
</svg>