<svg width="16" height="16" viewBox="0 0 16 16" fill="none" xmlns="http://www.w3.org/2000/svg">
	<path fill-rule="evenodd" clip-rule="evenodd" d="M9.9356 6.66045H13.2005L14.8335 3.83023L13.2005 1H9.9356L8.30261 3.83023L9.9356 6.66045ZM7.14809 3.83023L9.35806 7.66045H13.778L15.988 3.83023L13.778 0H9.35806L7.14809 3.83023ZM2.78751 10.8302H6.05239L7.68538 8L6.05239 5.16977H2.78751L1.15452 8L2.78751 10.8302ZM0 8L2.20998 11.8302H6.62993L8.8399 8L6.62993 4.16977H2.20998L0 8ZM13.2005 15H9.9356L8.30261 12.1698L9.9356 9.33955H13.2005L14.8335 12.1698L13.2005 15ZM9.35806 16L7.14809 12.1698L9.35806 8.33955H13.778L15.988 12.1698L13.778 16H9.35806ZM11.0609 10.0903L9.71465 12.4313L10.5815 12.9299L11.9278 10.5888L11.0609 10.0903ZM3.9128 5.92055L2.56656 8.26157L3.43344 8.76009L4.77968 6.41906L3.9128 5.92055ZM11.0609 1.75074L9.71465 4.09177L10.5815 4.59028L11.9278 2.24926L11.0609 1.75074Z" fill="currentColor"/>
</svg>
